<svg>

  <symbol id="language"
    xmlns="http://www.w3.org/2000/svg" viewBox="0 0 20 20">
    <path fill-rule="evenodd" clip-rule="evenodd" d="M0 10C0 4.48 4.47 0 9.99 0C15.52 0 20 4.48 20 10C20 15.52 15.52 20 9.99 20C4.47 20 0 15.52 0 10ZM13.9701 6.00003H16.9201C15.9601 4.35003 14.4301 3.07003 12.5901 2.44003C13.1901 3.55003 13.6501 4.75003 13.9701 6.00003ZM10.0001 2.03998C10.8301 3.23998 11.4801 4.56998 11.9101 5.99998H8.09008C8.52008 4.56998 9.17008 3.23998 10.0001 2.03998ZM2 10C2 10.69 2.1 11.36 2.26 12H5.64C5.56 11.34 5.5 10.68 5.5 10C5.5 9.32 5.56 8.66 5.64 8H2.26C2.1 8.64 2 9.31 2 10ZM3.07996 14H6.02996C6.34996 15.25 6.80996 16.45 7.40996 17.56C5.56996 16.93 4.03996 15.66 3.07996 14ZM3.07996 6.00003H6.02996C6.34996 4.75003 6.80996 3.55003 7.40996 2.44003C5.56996 3.07003 4.03996 4.34003 3.07996 6.00003ZM10.0001 17.96C9.17008 16.76 8.52008 15.43 8.09008 14H11.9101C11.4801 15.43 10.8301 16.76 10.0001 17.96ZM7.66 12H12.34C12.43 11.34 12.5 10.68 12.5 10C12.5 9.32 12.43 8.65 12.34 8H7.66C7.57 8.65 7.5 9.32 7.5 10C7.5 10.68 7.57 11.34 7.66 12ZM12.5901 17.56C13.1901 16.45 13.6501 15.25 13.9701 14H16.9201C15.9601 15.65 14.4301 16.93 12.5901 17.56ZM14.5003 10C14.5003 10.68 14.4403 11.34 14.3603 12H17.7403C17.9003 11.36 18.0003 10.69 18.0003 10C18.0003 9.31 17.9003 8.64 17.7403 8H14.3603C14.4403 8.66 14.5003 9.32 14.5003 10Z" fill="white"/>
  </symbol>
  <symbol id="drop-down-triangle"
    xmlns="http://www.w3.org/2000/svg" viewBox="0 0 24 24">
    <path xmlns="http://www.w3.org/2000/svg" d="M8.70956 11.71L11.2996 14.3C11.6896 14.69 12.3196 14.69 12.7096 14.3L15.2996 11.71C15.9296 11.08 15.4796 10 14.5896 10H9.40956C8.51956 10 8.07956 11.08 8.70956 11.71Z" fill="white"/>
  </symbol>
  <symbol id="chevron"
    xmlns="http://www.w3.org/2000/svg" viewBox="0 0 12 8">
    <path d="M2.11973 1.29006L5.99973 5.17006L9.87973 1.29006C10.2697 0.900059 10.8997 0.900059 11.2897 1.29006C11.6797 1.68006 11.6797 2.31006 11.2897 2.70006L6.69973 7.29006C6.30973 7.68006 5.67973 7.68006 5.28973 7.29006L0.699727 2.70006C0.309727 2.31006 0.309727 1.68006 0.699727 1.29006C1.08973 0.910059 1.72973 0.900059 2.11973 1.29006Z" fill="#9699A5"/>
  </symbol>

</svg>
