<svg width="16" height="16" viewBox="0 0 16 16" fill="none" xmlns="http://www.w3.org/2000/svg">
<path d="M3.82578 9.00078L8.72578 13.9008C8.92578 14.1008 9.02162 14.3341 9.01328 14.6008C9.00495 14.8674 8.90078 15.1008 8.70078 15.3008C8.50078 15.4841 8.26745 15.5799 8.00078 15.5883C7.73411 15.5966 7.50078 15.5008 7.30078 15.3008L0.700781 8.70078C0.600781 8.60078 0.529948 8.49245 0.488281 8.37578C0.446615 8.25911 0.425781 8.13411 0.425781 8.00078C0.425781 7.86745 0.446615 7.74245 0.488281 7.62578C0.529948 7.50911 0.600781 7.40078 0.700781 7.30078L7.30078 0.700781C7.48411 0.517448 7.71328 0.425781 7.98828 0.425781C8.26328 0.425781 8.50078 0.517448 8.70078 0.700781C8.90078 0.900781 9.00078 1.13828 9.00078 1.41328C9.00078 1.68828 8.90078 1.92578 8.70078 2.12578L3.82578 7.00078H15.0008C15.2841 7.00078 15.5216 7.09661 15.7133 7.28828C15.9049 7.47995 16.0008 7.71745 16.0008 8.00078C16.0008 8.28411 15.9049 8.52162 15.7133 8.71328C15.5216 8.90495 15.2841 9.00078 15.0008 9.00078H3.82578Z" fill="#82848F"/>
</svg>
