<svg width="32" height="32" viewBox="0 0 32 32" fill="none"
  xmlns="http://www.w3.org/2000/svg">
  <path fill-rule="evenodd" clip-rule="evenodd" d="M16 0C7.16344 0 0 7.16344 0 16C0 24.8366 7.16344 32 16 32C24.8366 32 32 24.8366 32 16C32 7.16344 24.8366 0 16 0ZM12.4843 7.51835C13.3945 7.47693 13.6853 7.4668 16.0029 7.4668H16.0002C18.3185 7.4668 18.6082 7.47693 19.5185 7.51835C20.4269 7.55995 21.0474 7.70378 21.5914 7.9148C22.1532 8.13258 22.6278 8.42414 23.1025 8.89881C23.5772 9.37313 23.8687 9.84922 24.0874 10.4105C24.2972 10.9531 24.4412 11.5732 24.4839 12.4816C24.5248 13.3918 24.5354 13.6827 24.5354 16.0002C24.5354 18.3178 24.5248 18.6079 24.4839 19.5181C24.4412 20.4262 24.2972 21.0465 24.0874 21.5893C23.8687 22.1503 23.5772 22.6264 23.1025 23.1007C22.6284 23.5754 22.153 23.8677 21.5919 24.0856C21.049 24.2967 20.4282 24.4405 19.5197 24.4821C18.6095 24.5235 18.3195 24.5336 16.0018 24.5336C13.6845 24.5336 13.3938 24.5235 12.4836 24.4821C11.5753 24.4405 10.955 24.2967 10.4121 24.0856C9.85118 23.8677 9.37508 23.5754 8.90094 23.1007C8.42645 22.6264 8.13489 22.1503 7.91675 21.5891C7.70591 21.0465 7.56208 20.4264 7.52031 19.5179C7.47906 18.6077 7.46875 18.3178 7.46875 16.0002C7.46875 13.6827 7.47942 13.3917 7.52013 12.4814C7.56102 11.5733 7.70502 10.9531 7.91658 10.4103C8.13525 9.84922 8.4268 9.37313 8.90148 8.89881C9.37579 8.42432 9.85189 8.13276 10.4131 7.9148C10.9557 7.70378 11.5758 7.55995 12.4843 7.51835Z" fill="#EEF2F7"/>
  <path fill-rule="evenodd" clip-rule="evenodd" d="M15.234 9.00457C15.3827 9.00434 15.5426 9.00441 15.7151 9.00449L15.9995 9.00457C18.278 9.00457 18.548 9.01275 19.4477 9.05364C20.2798 9.09169 20.7313 9.23071 21.0321 9.34751C21.4303 9.50218 21.7143 9.68707 22.0128 9.98574C22.3114 10.2844 22.4963 10.5689 22.6513 10.9671C22.7681 11.2675 22.9073 11.7191 22.9452 12.5511C22.9861 13.4507 22.995 13.7209 22.995 15.9982C22.995 18.2756 22.9861 18.5458 22.9452 19.4454C22.9072 20.2774 22.7681 20.729 22.6513 21.0294C22.4967 21.4276 22.3114 21.7112 22.0128 22.0097C21.7141 22.3084 21.4305 22.4932 21.0321 22.6479C20.7317 22.7653 20.2798 22.9039 19.4477 22.942C18.5482 22.9829 18.278 22.9917 15.9995 22.9917C13.7209 22.9917 13.4509 22.9829 12.5513 22.942C11.7193 22.9036 11.2678 22.7645 10.9668 22.6477C10.5685 22.4931 10.2841 22.3082 9.98543 22.0095C9.68676 21.7108 9.50187 21.4271 9.34684 21.0287C9.23004 20.7283 9.09084 20.2767 9.05297 19.4447C9.01208 18.5451 9.00391 18.2749 9.00391 15.9961C9.00391 13.7173 9.01208 13.4485 9.05297 12.549C9.09102 11.717 9.23004 11.2654 9.34684 10.9646C9.50151 10.5664 9.68676 10.2819 9.98543 9.98325C10.2841 9.68458 10.5685 9.49969 10.9668 9.34467C11.2676 9.22733 11.7193 9.08866 12.5513 9.05044C13.3385 9.01489 13.6436 9.00422 15.234 9.00244V9.00457ZM20.5553 10.4217C19.9899 10.4217 19.5312 10.8799 19.5312 11.4454C19.5312 12.0107 19.9899 12.4694 20.5553 12.4694C21.1206 12.4694 21.5793 12.0107 21.5793 11.4454C21.5793 10.8801 21.1206 10.4214 20.5553 10.4214V10.4217ZM11.6172 15.9999C11.6172 13.5799 13.5792 11.6178 15.9993 11.6177C18.4194 11.6177 20.381 13.5798 20.381 15.9999C20.381 18.4201 18.4196 20.3813 15.9995 20.3813C13.5793 20.3813 11.6172 18.4201 11.6172 15.9999Z" fill="#EEF2F7"/>
  <path d="M16.0007 13.1558C17.5716 13.1558 18.8452 14.4292 18.8452 16.0002C18.8452 17.5711 17.5716 18.8447 16.0007 18.8447C14.4297 18.8447 13.1562 17.5711 13.1562 16.0002C13.1562 14.4292 14.4297 13.1558 16.0007 13.1558V13.1558Z" fill="#EEF2F7"/>
</svg>