<svg xmlns="http://www.w3.org/2000/svg" viewBox="0 0 80 49">
  <path d="M1.95788 34.5374C-4.41122 19.1753 5.5902 3.41241 19.9614 0.596723C33.0768 -1.97301 44.5139 4.06747 45.0005 12.7588C45.2413 17.0611 43.1727 19.6614 40.6131 20.8217C37.0678 22.4291 31.5231 21.0759 28.7069 17.6697C28.1107 16.9484 28.5389 15.8561 29.472 15.7377C32.0223 15.4131 33.6754 13.9274 34.1245 11.6988C35.2098 6.30678 29.38 2.44266 22.8011 4.47327C14.2437 7.11422 9.40898 21.2506 17.427 31.5735C22.9825 38.7261 31.8626 38.8785 37.3947 38.023C40.2611 37.58 42.6074 36.3469 44.3617 34.9341C45.3124 34.168 46.6737 35.1378 46.2397 36.2723C44.4119 41.0541 39.8899 46.9827 30.5356 48.5587C19.3443 50.4436 6.87037 46.3865 1.95788 34.5374Z" fill="white"/>
  <path d="M79.5319 29.3652C78.1046 28.3506 75.6873 26.4624 72.6072 23.4108C69.5271 20.3592 67.6212 17.9642 66.5972 16.5502C66.1495 15.9319 65.1263 15.9319 64.6786 16.5502C63.6546 17.9642 61.7487 20.3592 58.6686 23.4108C55.5885 26.4624 53.1711 28.3506 51.7438 29.3652C51.1198 29.8088 51.1198 30.8225 51.7438 31.2661C53.1711 32.2806 55.5885 34.1688 58.6686 37.2204C61.7487 40.272 63.6546 42.667 64.6786 44.0811C65.1263 44.6994 66.1495 44.6994 66.5972 44.0811C67.6212 42.667 69.5271 40.272 72.6072 37.2204C75.6873 34.1688 78.1046 32.2806 79.5319 31.2661C80.156 30.8225 80.156 29.8088 79.5319 29.3652Z" fill="white"/>
</svg>
