<svg width="56" height="56" viewBox="0 0 56 56" fill="none" xmlns="http://www.w3.org/2000/svg">
<path fill-rule="evenodd" clip-rule="evenodd" d="M27.9985 0C12.3326 0 0.191406 11.4638 0.191406 26.9465C0.191406 35.0454 3.51478 42.0433 8.92521 46.8781C9.37846 47.2862 9.6525 47.8507 9.67489 48.46L9.82602 53.4009C9.87635 54.9771 11.5045 56 12.9481 55.3684L18.4647 52.937C18.9314 52.7305 19.455 52.6911 19.9474 52.8253C22.4819 53.5239 25.1843 53.8928 27.9985 53.8928C43.6645 53.8928 55.8057 42.429 55.8057 26.9464C55.8057 11.4638 43.6645 0 27.9985 0Z" fill="url(#paint0_linear_82_7791)"/>
<path fill-rule="evenodd" clip-rule="evenodd" d="M11.3026 34.8289L19.4713 21.884C20.7693 19.8271 23.5556 19.3128 25.5026 20.7717L31.9984 25.64C32.2886 25.8569 32.6414 25.9736 33.0036 25.9726C33.3659 25.9716 33.7181 25.8529 34.007 25.6344L42.7801 18.983C43.9493 18.0944 45.4825 19.4974 44.6935 20.7382L36.5304 33.6775C35.2324 35.7344 32.4461 36.2487 30.499 34.7898L24.0033 29.9215C23.7131 29.7046 23.3603 29.5879 22.998 29.5889C22.6357 29.5899 22.2836 29.7086 21.9946 29.927L13.216 36.5841C12.0467 37.4728 10.5136 36.0698 11.3026 34.8289Z" fill="white"/>
<defs>
<linearGradient id="paint0_linear_82_7791" x1="27.9985" y1="0" x2="27.9985" y2="55.5583" gradientUnits="userSpaceOnUse">
<stop stop-color="#00B2FF"/>
<stop offset="1" stop-color="#006AFF"/>
</linearGradient>
</defs>
</svg>
