<svg width="56" height="56" viewBox="0 0 56 56" fill="none" xmlns="http://www.w3.org/2000/svg">
<g clip-path="url(#clip0_125_11903)">
<path d="M55.998 41.8455C55.998 42.1521 55.9886 42.8171 55.9702 43.3308C55.9251 44.5876 55.8255 46.2095 55.6748 46.9484C55.4484 48.0589 55.1065 49.107 54.6608 49.9794C54.1335 51.0115 53.4608 51.9359 52.6615 52.7337C51.8639 53.53 50.9404 54.2 49.9099 54.7252C49.0329 55.1721 47.9782 55.5141 46.8614 55.7396C46.1298 55.8873 44.5201 55.9851 43.2712 56.0295C42.7571 56.0478 42.092 56.0571 41.7865 56.0571L14.2116 56.0527C13.9049 56.0527 13.24 56.0432 12.7264 56.0248C11.4695 55.9798 9.84765 55.8801 9.10866 55.7295C7.99817 55.503 6.94998 55.1612 6.0776 54.7155C5.04553 54.1881 4.12115 53.5154 3.32331 52.7161C2.52706 51.9186 1.85703 50.995 1.33186 49.9646C0.884846 49.0875 0.542829 48.0328 0.317352 46.9161C0.169696 46.1845 0.0719689 44.5748 0.0275079 43.3259C0.00924221 42.8118 0 42.1467 0 41.8412L0.00437501 14.2663C0.00437501 13.9596 0.0137266 13.2947 0.0321563 12.781C0.0772736 11.5241 0.17686 9.90232 0.327524 9.16338C0.553985 8.0529 0.895783 7.0047 1.34154 6.13227C1.86889 5.10027 2.54161 4.17583 3.34087 3.37799C4.13843 2.5818 5.06199 1.91171 6.09247 1.38649C6.9695 0.939586 8.02426 0.59757 9.14104 0.372094C9.87259 0.224383 11.4823 0.126656 12.7312 0.08225C13.2453 0.0639297 13.9105 0.0546875 14.2159 0.0546875L41.7909 0.0591172C42.0975 0.0591172 42.7624 0.0684687 43.2761 0.0868984C44.533 0.132016 46.1548 0.231602 46.8938 0.382266C48.0042 0.608726 49.0524 0.950523 49.9249 1.39628C50.9569 1.92363 51.8813 2.59634 52.6791 3.3956C53.4753 4.19316 54.1454 5.11667 54.6706 6.1472C55.1176 7.02423 55.4596 8.07893 55.6851 9.1957C55.8327 9.92731 55.9304 11.537 55.9749 12.7859C55.9932 13.3001 56.0025 13.9652 56.0025 14.2706L55.998 41.8455Z" fill="url(#paint0_linear_125_11903)"/>
<path d="M42.8351 13.3016C39.0437 9.50701 34.0015 7.4162 28.6293 7.41406C17.5605 7.41406 8.55172 16.4193 8.54729 27.4883C8.54587 31.0265 9.47058 34.4803 11.2279 37.5247L8.37891 47.9278L19.0247 45.1362C21.9579 46.7355 25.2602 47.5783 28.6213 47.5797H28.6296C39.6974 47.5797 48.7069 38.5734 48.7114 27.5043C48.7136 22.1401 46.6267 17.0962 42.8351 13.3016ZM28.6296 44.1892H28.6228C25.6277 44.188 22.6901 43.3837 20.1274 41.8634L19.5178 41.5018L13.2005 43.1584L14.8867 37.001L14.4897 36.3697C12.8189 33.7131 11.9365 30.6424 11.9378 27.4896C11.9414 18.2896 19.4292 10.8047 28.6361 10.8047C33.0942 10.8064 37.2851 12.5444 40.4365 15.6982C43.5879 18.8521 45.3224 23.0445 45.3207 27.503C45.3171 36.7038 37.8294 44.1892 28.6296 44.1892ZM37.7851 31.6922C37.2833 31.4412 34.8164 30.2276 34.3564 30.0602C33.8965 29.8928 33.562 29.8091 33.2274 30.3113C32.8929 30.8135 31.9313 31.9434 31.6385 32.2781C31.3458 32.6129 31.0531 32.6548 30.5514 32.4037C30.0496 32.1526 28.4328 31.6229 26.5162 29.914C25.0246 28.584 24.0175 26.9412 23.7248 26.439C23.4321 25.9368 23.6937 25.6654 23.9448 25.4152C24.1705 25.1905 24.4466 24.8294 24.6975 24.5364C24.9484 24.2436 25.032 24.0343 25.1993 23.6995C25.3666 23.3647 25.2829 23.0717 25.1574 22.8207C25.032 22.5696 24.0285 20.1006 23.6103 19.0962C23.2031 18.1181 22.7893 18.2504 22.4813 18.2351C22.1889 18.2205 21.8541 18.2175 21.5196 18.2175C21.1851 18.2175 20.6415 18.343 20.1816 18.8452C19.7217 19.3474 18.4254 20.5609 18.4254 23.0299C18.4254 25.4989 20.2234 27.8842 20.4743 28.2189C20.7252 28.5537 24.0125 33.6205 29.046 35.7933C30.2433 36.3101 31.1779 36.6187 31.9066 36.8499C33.1087 37.2316 34.2025 37.1778 35.0672 37.0487C36.0312 36.9047 38.0359 35.8352 38.4541 34.6635C38.8723 33.4917 38.8723 32.4874 38.7468 32.2782C38.6213 32.0689 38.2869 31.9434 37.7851 31.6922Z" fill="white"/>
</g>
<defs>
<linearGradient id="paint0_linear_125_11903" x1="28.0012" y1="0.0546875" x2="28.0012" y2="56.0571" gradientUnits="userSpaceOnUse">
<stop stop-color="#61FD7D"/>
<stop offset="1" stop-color="#2BB826"/>
</linearGradient>
<clipPath id="clip0_125_11903">
<rect width="56" height="56" fill="white"/>
</clipPath>
</defs>
</svg>
