<svg width="56" height="56" viewBox="0 0 56 56" fill="none" xmlns="http://www.w3.org/2000/svg">
<path d="M56 28C56 43.47 43.47 56 28 56C12.53 56 0 43.47 0 28C0 12.53 12.53 0 28 0C43.47 0 56 12.53 56 28Z" fill="url(#paint0_linear_125_11894)"/>
<path d="M22.8661 40.8312C21.9561 40.8312 22.1195 40.4812 21.7928 39.6179L19.1328 30.8446L35.6528 20.5312L37.5895 21.0446L35.9795 25.4312L22.8661 40.8312Z" fill="#AACCDA"/>
<path d="M22.8672 40.8341C23.5672 40.8341 23.8705 40.5074 24.2672 40.1341C24.8739 39.5508 32.6672 31.9674 32.6672 31.9674L27.8839 30.8008L23.4505 33.6008L22.8672 40.6008V40.8341Z" fill="#1880AD"/>
<path d="M23.3352 33.6941L34.6285 42.0241C35.9119 42.7241 36.8452 42.3741 37.1719 40.8341L41.7685 19.1808C42.2352 17.2908 41.0452 16.4508 39.8085 17.0108L12.8351 27.4174C10.9918 28.1641 11.0151 29.1908 12.5085 29.6341L19.4385 31.8041L35.4685 21.7008C36.2152 21.2341 36.9152 21.4908 36.3552 22.0041L23.3352 33.6941Z" fill="url(#paint1_linear_125_11894)"/>
<defs>
<linearGradient id="paint0_linear_125_11894" x1="36.2063" y1="8.85033" x2="22.2063" y2="41.5165" gradientUnits="userSpaceOnUse">
<stop stop-color="#37AEE2"/>
<stop offset="1" stop-color="#1E96C8"/>
</linearGradient>
<linearGradient id="paint1_linear_125_11894" x1="30.0997" y1="28.8769" x2="35.9331" y2="38.2103" gradientUnits="userSpaceOnUse">
<stop stop-color="#EFF7FC"/>
<stop offset="1" stop-color="white"/>
</linearGradient>
</defs>
</svg>
