<svg width="44" height="44" viewBox="0 0 56 57" fill="none" xmlns="http://www.w3.org/2000/svg">
<g clip-path="url(#clip0_783_3587)">
<rect width="56" height="56" transform="translate(0 0.148438)" fill="#434752"/>
<path d="M56 49.1343V56.1506H0V49.1599C3.25721 44.807 7.48512 41.2741 12.3475 38.8421C17.2099 36.4101 22.5727 35.1461 28.0093 35.1506C39.452 35.1506 49.616 40.6433 56 49.1343ZM37.338 21.1483C37.338 23.6236 36.3547 25.9976 34.6043 27.7479C32.854 29.4983 30.48 30.4816 28.0047 30.4816C25.5293 30.4816 23.1553 29.4983 21.405 27.7479C19.6547 25.9976 18.6713 23.6236 18.6713 21.1483C18.6713 18.6729 19.6547 16.299 21.405 14.5486C23.1553 12.7983 25.5293 11.8149 28.0047 11.8149C30.48 11.8149 32.854 12.7983 34.6043 14.5486C36.3547 16.299 37.338 18.6729 37.338 21.1483Z" fill="#82848F"/>
</g>
<defs>
<clipPath id="clip0_783_3587">
<rect width="56" height="56" fill="white" transform="translate(0 0.148438)"/>
</clipPath>
</defs>
</svg>
