<svg xmlns="http://www.w3.org/2000/svg" width="360" height="75" viewBox="0 70 330 95" fill="none">
  <g filter="url(#filter0_f_23_6452)">
    <path fill-rule="evenodd" clip-rule="evenodd" d="M58.3771 117.312C25.8267 112.828 -6.46735 96.2271 -30.2662 69.6413C-31.796 67.9355 -29.3031 65.5523 -27.7934 67.2364C-25.0096 70.3432 -22.1118 73.3006 -19.1011 76.1025C5.38902 98.9 36.8144 112.622 67.9479 114.493C73.1269 114.801 78.315 114.761 83.47 114.312C80.3953 108.595 78.4491 101.92 78.2489 95.4143C77.9963 87.0518 81.48 79.5215 87.7243 75.3639C93.5095 71.5109 100.131 71.3273 106.113 75.0816C112.324 78.9838 116.535 86.4769 115.83 94.6901C115.088 103.293 110.03 110.007 103.39 113.493C99.1022 115.746 94.3303 116.86 89.5364 117.493C89.5478 117.508 89.5592 117.523 89.5706 117.537C94.9066 124.472 102.981 127.157 110.663 128.201C119.971 129.464 129.105 127.806 138.092 125.34C144.566 123.564 151.013 121.684 157.46 119.805C170.454 116.016 183.444 112.228 196.636 109.3C215.574 105.097 234.926 102.404 254.333 103.255C284.579 104.574 315.641 114.858 339.165 137.894C337.008 130.639 333.862 123.76 329.855 117.593C329.318 116.77 329.321 115.627 330.023 114.945C330.658 114.326 331.792 114.372 332.329 115.195C337.696 123.456 341.604 132.838 343.808 142.773C344.023 143.127 344.086 143.497 344.039 143.844C344.07 143.995 344.101 144.146 344.132 144.297C344.415 145.672 343.102 146.911 341.974 146.361C339.816 145.311 337.625 144.369 335.398 143.543C327.701 140.696 319.64 139.323 311.609 139.398C310.72 139.402 310.047 138.247 310.114 137.329C310.191 136.235 310.999 135.66 311.881 135.652C314.242 135.629 316.612 135.733 318.969 135.96C324.847 136.531 330.693 137.886 336.342 139.97C334.667 138.353 332.946 136.798 331.186 135.305C302.222 110.769 264.869 104.462 230.22 107.666C208.905 109.635 187.993 114.846 167.337 120.723C163.399 121.843 159.471 123.018 155.542 124.194C149.28 126.068 143.016 127.943 136.708 129.592C127.55 131.989 118.17 133.292 108.748 131.699C100.91 130.372 92.9788 127.309 87.4502 120.379C86.8231 119.593 86.2198 118.77 85.6429 117.915C84.3478 118.029 83.0603 118.121 81.7896 118.204C73.9943 118.713 66.157 118.382 58.3771 117.312ZM87.1157 113.926C88.0799 113.805 89.0426 113.669 90.0034 113.518C96.582 112.487 103.509 110.778 108.245 105.082C113.134 99.205 114.279 89.6764 109.539 83.0498C105.628 77.5799 99.1212 74.7168 93.2484 76.7296C86.5746 79.0163 81.904 85.3562 81.5081 93.4658C81.1693 100.489 83.5328 107.954 87.1157 113.926Z" fill="url(#paint0_linear_23_6452)" fill-opacity="0.8"/>
  </g>
  <path fill-rule="evenodd" clip-rule="evenodd" d="M58.3107 117.354C25.7873 112.86 -6.48236 96.2447 -30.2663 69.6425C-31.7951 67.9356 -29.3049 65.5521 -27.7961 67.2373C-25.0141 70.346 -22.1182 73.3053 -19.1095 76.109C5.36436 98.9216 36.7656 112.657 67.8726 114.536C73.0472 114.845 78.2309 114.807 83.3813 114.359C80.3081 108.639 78.3622 101.961 78.1607 95.4525C77.9066 87.0867 81.3858 79.5542 87.6238 75.3966C93.4033 71.5434 100.019 71.3614 105.997 75.1186C112.203 79.0239 116.412 86.5211 115.709 94.7373C114.97 103.344 109.918 110.059 103.284 113.545C99.0003 115.797 94.2328 116.911 89.4432 117.543C89.4546 117.558 89.4659 117.572 89.4773 117.587C94.8102 124.525 102.878 127.214 110.553 128.26C119.854 129.526 128.98 127.87 137.959 125.405C144.427 123.63 150.868 121.751 157.308 119.872C170.291 116.085 183.268 112.299 196.449 109.373C215.369 105.173 234.705 102.483 254.095 103.339C284.339 104.668 315.4 114.979 338.915 138.067C336.404 130.862 332.9 124.088 328.549 118.082C327.974 117.29 327.921 116.154 328.589 115.44C329.192 114.794 330.326 114.783 330.901 115.574C336.951 123.927 341.453 133.592 344.091 143.925C344.441 145.279 343.19 146.576 342.038 146.085C339.833 145.148 337.601 144.32 335.338 143.609C327.519 141.16 319.408 140.194 311.396 140.668C310.51 140.715 309.782 139.601 309.804 138.684C309.829 137.593 310.607 136.981 311.487 136.929C313.842 136.79 316.212 136.775 318.575 136.884C324.394 137.157 330.218 138.19 335.887 139.941C334.261 138.376 332.594 136.87 330.889 135.421C301.945 110.869 264.622 104.55 230.003 107.746C208.707 109.711 187.814 114.919 167.178 120.793C163.243 121.912 159.319 123.088 155.393 124.263C149.137 126.136 142.879 128.01 136.577 129.658C127.427 132.054 118.056 133.355 108.641 131.759C100.809 130.43 92.8847 127.363 87.3593 120.43C86.7327 119.643 86.1297 118.819 85.5531 117.964C84.2592 118.078 82.9728 118.169 81.7032 118.252C73.9147 118.76 66.0841 118.426 58.3107 117.354ZM87.0238 113.973C87.9871 113.853 88.949 113.717 89.909 113.566C96.4817 112.537 103.403 110.828 108.133 105.132C113.017 99.2533 114.158 89.7213 109.422 83.0908C105.512 77.6178 99.0108 74.752 93.1434 76.7641C86.4759 79.05 81.8106 85.3913 81.4167 93.504C81.0798 100.53 83.4427 107.999 87.0238 113.973Z" fill="url(#paint1_linear_23_6452)"/>
  <defs>
    <filter id="filter0_f_23_6452" x="-55.7441" y="41.6611" width="424.916" height="129.833" filterUnits="userSpaceOnUse" color-interpolation-filters="sRGB">
      <feFlood flood-opacity="0" result="BackgroundImageFix"/>
      <feBlend mode="normal" in="SourceGraphic" in2="BackgroundImageFix" result="shape"/>
      <feGaussianBlur stdDeviation="12.5" result="effect1_foregroundBlur_23_6452"/>
    </filter>
    <linearGradient id="paint0_linear_23_6452" x1="354.567" y1="147.107" x2="-33.9158" y2="96.3888" gradientUnits="userSpaceOnUse">
      <stop stop-color="#42F968"/>
      <stop offset="0.59375" stop-color="#42F868" stop-opacity="0.6"/>
      <stop offset="1" stop-color="#42F768" stop-opacity="0"/>
    </linearGradient>
    <linearGradient id="paint1_linear_23_6452" x1="354.215" y1="146.463" x2="-33.8156" y2="95.3761" gradientUnits="userSpaceOnUse">
      <stop stop-color="#4DF971"/>
      <stop offset="0.59375" stop-color="#4DF971" stop-opacity="0.6"/>
      <stop offset="1" stop-color="#4DF971" stop-opacity="0"/>
    </linearGradient>
  </defs>
</svg>
