<svg width="803" height="188" viewBox="0 0 803 188" fill="none" xmlns="http://www.w3.org/2000/svg">
<g clip-path="url(#clip0_1386_30222)">
<g filter="url(#filter0_f_1386_30222)">
<path fill-rule="evenodd" clip-rule="evenodd" d="M184.426 113.45C116.894 104.731 49.8955 72.4605 0.520843 20.7779C-2.65296 17.4616 2.51894 12.8286 5.65104 16.102C11.4265 22.1421 17.4384 27.891 23.6846 33.3376C74.4934 77.656 139.69 104.332 204.282 107.968C215.027 108.567 225.79 108.49 236.485 107.618C230.106 96.5032 226.068 83.5282 225.653 70.8797C225.129 54.6239 232.357 39.9842 245.311 31.9025C257.314 24.4124 271.051 24.055 283.462 31.3538C296.347 38.9391 305.083 53.506 303.62 69.4726C302.082 86.1969 291.589 99.2475 277.813 106.026C268.917 110.405 259.017 112.571 249.071 113.801C249.095 113.83 249.118 113.859 249.142 113.887C260.212 127.367 276.964 132.588 292.901 134.617C312.212 137.073 331.163 133.849 349.808 129.056C363.239 125.604 376.615 121.949 389.989 118.295C416.948 110.929 443.897 103.566 471.268 97.873C510.556 89.7026 550.706 84.4669 590.968 86.1213C653.719 88.6874 718.159 108.678 766.964 153.458C762.489 139.355 755.963 125.984 747.65 113.997C746.537 112.397 746.543 110.175 747.999 108.848C749.316 107.646 751.669 107.734 752.782 109.334C763.916 125.392 772.024 143.629 776.598 162.941C777.045 163.632 777.177 164.354 777.078 165.032C777.143 165.323 777.207 165.615 777.271 165.908C777.858 168.582 775.133 170.991 772.794 169.92C768.316 167.879 763.771 166.048 759.15 164.443C743.181 158.908 726.457 156.239 709.795 156.386C707.951 156.392 706.556 154.148 706.694 152.362C706.855 150.237 708.53 149.119 710.361 149.102C715.259 149.058 720.176 149.26 725.066 149.701C737.263 150.812 749.391 153.446 761.112 157.497C757.636 154.354 754.066 151.33 750.414 148.427C690.323 100.73 612.828 88.4699 540.942 94.6966C496.721 98.5252 453.335 108.656 410.482 120.08C402.311 122.257 394.161 124.542 386.01 126.829C373.019 130.471 360.024 134.115 346.937 137.322C327.936 141.981 308.476 144.514 288.928 141.418C272.667 138.839 256.213 132.883 244.743 119.412C243.442 117.884 242.19 116.283 240.993 114.621C238.306 114.844 235.635 115.022 232.999 115.182C216.826 116.173 200.566 115.529 184.426 113.45ZM244.049 106.866C246.049 106.631 248.046 106.367 250.04 106.073C263.688 104.07 278.06 100.746 287.886 89.6746C298.029 78.2495 300.403 59.7262 290.57 46.8436C282.455 36.2098 268.956 30.6447 256.772 34.5572C242.926 39.0026 233.236 51.3272 232.415 67.0922C231.712 80.7456 236.615 95.2575 244.049 106.866Z" fill="url(#paint0_linear_1386_30222)" fill-opacity="0.8"/>
</g>
<path fill-rule="evenodd" clip-rule="evenodd" d="M184.575 110.897C117.168 101.685 50.2861 67.6316 0.99215 13.1096C-2.17645 9.61131 2.98474 4.72686 6.11179 8.17992C11.8778 14.5518 17.8797 20.6168 24.1155 26.3631C74.8395 73.1181 139.921 101.27 204.393 105.12C215.117 105.755 225.861 105.675 236.535 104.758C230.166 93.0347 226.133 79.3484 225.715 66.0083C225.189 48.8621 232.4 33.4246 245.328 24.9031C257.306 17.0054 271.019 16.6325 283.408 24.3335C296.27 32.3376 304.993 47.7032 303.537 64.5425C302.005 82.1816 291.535 95.9437 277.786 103.089C268.907 107.706 259.026 109.988 249.1 111.284C249.123 111.313 249.147 111.344 249.17 111.374C260.222 125.595 276.944 131.105 292.852 133.249C312.128 135.844 331.042 132.449 349.651 127.397C363.057 123.76 376.407 119.909 389.755 116.058C416.662 108.295 443.56 100.536 470.877 94.5379C510.09 85.9298 550.165 80.4177 590.351 82.1728C653.034 84.8959 717.41 106.028 766.147 153.346C760.943 138.582 753.68 124.698 744.663 112.391C743.471 110.767 743.363 108.438 744.746 106.976C745.996 105.651 748.347 105.628 749.539 107.25C762.078 124.37 771.409 144.177 776.876 165.356C777.601 168.13 775.008 170.79 772.621 169.782C768.05 167.862 763.425 166.166 758.735 164.708C742.529 159.69 725.717 157.71 709.114 158.68C707.275 158.778 705.768 156.494 705.814 154.614C705.864 152.379 707.477 151.125 709.302 151.018C714.182 150.731 719.095 150.702 723.993 150.925C736.054 151.484 748.124 153.603 759.875 157.192C756.505 153.984 753.048 150.896 749.514 147.926C689.524 97.6043 612.171 84.6549 540.421 91.2048C496.283 95.2324 452.98 105.906 410.21 117.945C402.055 120.239 393.921 122.647 385.785 125.057C372.819 128.895 359.85 132.736 346.787 136.114C327.823 141.023 308.4 143.69 288.889 140.42C272.657 137.696 256.231 131.41 244.78 117.2C243.481 115.588 242.232 113.9 241.037 112.147C238.355 112.38 235.688 112.568 233.058 112.737C216.915 113.777 200.686 113.094 184.575 110.897ZM244.085 103.967C246.082 103.72 248.075 103.442 250.065 103.132C263.687 101.023 278.032 97.5207 287.837 85.8462C297.957 73.7979 300.323 54.262 290.506 40.6731C282.403 29.4551 268.929 23.5819 256.768 27.7059C242.949 32.3907 233.28 45.3874 232.463 62.0152C231.765 76.4147 236.662 91.7223 244.085 103.967Z" fill="url(#paint1_linear_1386_30222)"/>
</g>
<defs>
<filter id="filter0_f_1386_30222" x="-25.4727" y="-10.0161" width="827.824" height="205.197" filterUnits="userSpaceOnUse" color-interpolation-filters="sRGB">
<feFlood flood-opacity="0" result="BackgroundImageFix"/>
<feBlend mode="normal" in="SourceGraphic" in2="BackgroundImageFix" result="shape"/>
<feGaussianBlur stdDeviation="12.5" result="effect1_foregroundBlur_1386_30222"/>
</filter>
<linearGradient id="paint0_linear_1386_30222" x1="798.92" y1="171.371" x2="-5.17834" y2="59.3357" gradientUnits="userSpaceOnUse">
<stop stop-color="#42F968"/>
<stop offset="0.59375" stop-color="#42F868" stop-opacity="0.6"/>
<stop offset="1" stop-color="#42F768" stop-opacity="0"/>
</linearGradient>
<linearGradient id="paint1_linear_1386_30222" x1="797.857" y1="170.556" x2="-6.05466" y2="63.5282" gradientUnits="userSpaceOnUse">
<stop stop-color="#4DF971"/>
<stop offset="0.59375" stop-color="#4DF971" stop-opacity="0.6"/>
<stop offset="1" stop-color="#4DF971" stop-opacity="0"/>
</linearGradient>
<clipPath id="clip0_1386_30222">
<rect width="803" height="188" fill="white"/>
</clipPath>
</defs>
</svg>
