<svg width="27" height="47" viewBox="0 0 27 47" fill="none"
  xmlns="http://www.w3.org/2000/svg">
  <path fill-rule="evenodd" clip-rule="evenodd" d="M2.75891 0.75C1.23521 0.75 0 1.98521 0 3.50891V36.7947C0 37.7172 0.461017 38.5786 1.22854 39.0903L11.7124 46.0795C12.6391 46.6973 13.8464 46.6973 14.7732 46.0795L25.257 39.0903C26.0246 38.5786 26.4856 37.7172 26.4856 36.7947V3.50891C26.4856 1.98521 25.2504 0.75 23.7267 0.75H2.75891ZM13.2425 22.8209C16.8994 22.8209 19.8639 19.8564 19.8639 16.1995C19.8639 12.5426 16.8994 9.57812 13.2425 9.57812C9.58559 9.57812 6.62109 12.5426 6.62109 16.1995C6.62109 19.8564 9.58559 22.8209 13.2425 22.8209Z" fill="#F1FF4B"/>
</svg>
