<svg width="36" height="47" viewBox="0 0 36 47" fill="none" xmlns="http://www.w3.org/2000/svg">
<path fill-rule="evenodd" clip-rule="evenodd" d="M2.75891 0C1.23521 0 0 1.23521 0 2.75891V27.5938H26.4856L26.4856 2.75891C26.4856 1.23521 25.2504 0 23.7267 0H2.75891ZM0 36.0447V32.008H26.4856L26.4856 36.0447C26.4856 36.9672 26.0246 37.8286 25.257 38.3403L14.7732 45.3295C13.8464 45.9473 12.6391 45.9473 11.7124 45.3295L1.22854 38.3403C0.461017 37.8286 0 36.9672 0 36.0447ZM12.4242 7.21898C12.7389 6.75254 12.825 6.625 13.2425 6.625C13.6031 6.625 13.6903 6.74939 14.0075 7.2017C14.348 7.68716 14.9534 8.55036 16.4459 10.0429C17.9385 11.5355 18.8017 12.1409 19.2872 12.4813C19.7395 12.7986 19.8639 12.8858 19.8639 13.2464C19.8639 13.6639 19.7363 13.75 19.2699 14.0647C18.7813 14.3943 17.921 14.9748 16.4459 16.4499C14.9709 17.9249 14.3904 18.7852 14.0608 19.2738C13.7461 19.7402 13.66 19.8678 13.2425 19.8678C12.8819 19.8678 12.7947 19.7434 12.4774 19.2911C12.137 18.8056 11.5316 17.9424 10.039 16.4499C8.54645 14.9573 7.68325 14.3519 7.1978 14.0114C6.74548 13.6942 6.62109 13.607 6.62109 13.2464C6.62109 12.8289 6.74864 12.7428 7.21507 12.4281C7.70363 12.0985 8.56399 11.518 10.039 10.0429C11.5141 8.5679 12.0946 7.70754 12.4242 7.21898ZM20.5405 46.4311L19.2966 45.6018L28.0223 39.7561C28.7868 39.2439 29.2456 38.3842 29.2456 37.464V33.1018H35.3137V37.1463C35.3137 38.0687 34.8527 38.9301 34.0852 39.4418L23.6013 46.4311C22.6746 47.0489 21.4673 47.0489 20.5405 46.4311ZM35.3137 28.6875H29.2456V1.10156H32.5548C34.0785 1.10156 35.3137 2.33677 35.3137 3.86048V28.6875Z" fill="#3AE3FA"/>
</svg>
