<svg width="45" height="48" viewBox="0 0 45 48" fill="none" xmlns="http://www.w3.org/2000/svg">
<path fill-rule="evenodd" clip-rule="evenodd" d="M0 2.75891C0 1.23521 1.23521 0 2.75891 0H23.7267C25.2504 0 26.4856 1.23521 26.4856 2.75891V36.0447C26.4856 36.9672 26.0246 37.8286 25.257 38.3403L14.7732 45.3295C13.8464 45.9473 12.6391 45.9473 11.7124 45.3295L1.22854 38.3403C0.461017 37.8286 0 36.9672 0 36.0447V2.75891ZM13.2425 3.3125C12.825 3.3125 12.7389 3.44004 12.4242 3.90648C12.0946 4.39504 11.5141 5.2554 10.039 6.73043C8.56399 8.20547 7.70363 8.78596 7.21507 9.1156C6.74864 9.43031 6.62109 9.51637 6.62109 9.93389C6.62109 10.2945 6.74548 10.3817 7.1978 10.6989C7.68325 11.0394 8.54645 11.6448 10.039 13.1374C11.5316 14.6299 12.137 15.4931 12.4774 15.9786C12.7947 16.4309 12.8819 16.5553 13.2425 16.5553C13.66 16.5553 13.7461 16.4277 14.0608 15.9613C14.3904 15.4727 14.9709 14.6124 16.4459 13.1374C17.921 11.6623 18.7813 11.0818 19.2699 10.7522C19.7363 10.4375 19.8639 10.3514 19.8639 9.93389C19.8639 9.57329 19.7395 9.48606 19.2872 9.16884C18.8017 8.82838 17.9385 8.22301 16.4459 6.73043C14.9534 5.23785 14.348 4.37466 14.0075 3.8892C13.6903 3.43689 13.6031 3.3125 13.2425 3.3125ZM13.2424 20.4219C12.9749 20.4219 12.9201 20.9078 12.8503 21.5278C12.7665 22.2725 12.6609 23.2106 12.1386 23.7323C11.6165 24.2538 10.679 24.3596 9.93457 24.4436C9.3143 24.5136 8.82812 24.5685 8.82812 24.8361C8.82812 25.1037 9.31408 25.1584 9.93409 25.2282C10.6788 25.312 11.6168 25.4177 12.1386 25.94C12.6601 26.4621 12.7659 27.3996 12.8499 28.144C12.9199 28.7642 12.9747 29.2504 13.2424 29.2504C13.5099 29.2504 13.5646 28.7644 13.6344 28.1444C13.7183 27.3998 13.8239 26.4617 14.3462 25.94C14.8683 25.4184 15.8058 25.3126 16.5502 25.2286C17.1705 25.1586 17.6567 25.1038 17.6567 24.8361C17.6567 24.5686 17.1707 24.5139 16.5507 24.4441C15.806 24.3602 14.8679 24.2546 14.3462 23.7323C13.8247 23.2102 13.7189 22.2727 13.6349 21.5283C13.5649 20.908 13.51 20.4219 13.2424 20.4219ZM12.8503 32.5591C12.9201 31.9391 12.9749 31.4531 13.2424 31.4531C13.51 31.4531 13.5649 31.9393 13.6349 32.5596C13.7189 33.304 13.8247 34.2415 14.3462 34.7636C14.8679 35.2859 15.806 35.3915 16.5507 35.4753C17.1707 35.5451 17.6567 35.5999 17.6567 35.8674C17.6567 36.135 17.1705 36.1899 16.5502 36.2599C15.8058 36.3439 14.8683 36.4497 14.3462 36.9712C13.8239 37.4929 13.7183 38.431 13.6344 39.1757C13.5646 39.7957 13.5099 40.2817 13.2424 40.2817C12.9747 40.2817 12.9199 39.7955 12.8499 39.1752C12.7659 38.4308 12.6601 37.4933 12.1386 36.9712C11.6168 36.4489 10.6788 36.3433 9.93411 36.2594H9.93408C9.31408 36.1896 8.82812 36.1349 8.82812 35.8674C8.82812 35.5997 9.3143 35.5449 9.93457 35.4749C10.679 35.3909 11.6165 35.2851 12.1386 34.7636C12.6609 34.2418 12.7665 33.3038 12.8503 32.5591ZM19.2966 45.6018L20.5405 46.4311C21.4673 47.0489 22.6746 47.0489 23.6013 46.4311L34.0852 39.4418C34.8527 38.9301 35.3137 38.0687 35.3137 37.1463V3.86048C35.3137 2.33677 34.0785 1.10156 32.5548 1.10156H29.2456V37.464C29.2456 38.3842 28.7868 39.2439 28.0223 39.7561L19.2966 45.6018ZM28.1287 46.706L29.3687 47.5326C30.2954 48.1504 31.5027 48.1505 32.4294 47.5326L42.9133 40.5434C43.6808 40.0317 44.1418 39.1703 44.1418 38.2478V4.96204C44.1418 3.43833 42.9066 2.20312 41.3829 2.20312H38.0698V38.5734C38.0698 39.4936 37.611 40.3533 36.8465 40.8655L28.1287 46.706Z" fill="#D492FF"/>
</svg>
